<?xml version="1.0" encoding="utf-8"?>
<!-- Generator: Adobe Illustrator 18.1.1, SVG Export Plug-In . SVG Version: 6.00 Build 0)  -->
<svg version="1.1" id="Layer_1" xmlns="http://www.w3.org/2000/svg" xmlns:xlink="http://www.w3.org/1999/xlink" x="0px" y="0px"
	 viewBox="0 314.3 612 524.3" enable-background="new 0 314.3 612 524.3" xml:space="preserve">
<polygon fill="#986516" points="413.2,314.3 413.2,430.6 442.8,430.6 415.9,533.8 363.4,314.4 248.3,314.4 192.2,533.8 169.3,430.6
	200,430.6 199.9,314.3 0,314.3 0,430.6 27.6,430.6 134.9,838.6 248.4,838.6 304.4,627.8 363.9,838.6 482.3,838.6 581.3,430.6
	611.6,430.6 611.6,314.3 "/>
<polygon fill="#FFFFFF" points="422.9,322.3 422.9,423.3 453.4,423.3 414.9,570 357.1,322.3 253.2,322.3 191,568.7 158.7,423
	192.3,423 192.3,322.3 9.4,322.3 9.4,422.8 34.8,422.8 141.5,828.6 240.6,828.6 304.4,595.8 370.4,828.6 476.5,828.6 574.4,423.3
	602.5,423.3 602.5,322.3 "/>
<path fill="#FCC30F" d="M14.8,327.7v89.7h24.1l106.8,405.8h90.8l67.9-247.5l70.1,247.5h97.7l98-405.3h26.9v-90.2H428.2v90.2h32.2
	l-45.8,174.5l-61.8-264.7c-13.5,0-95.4,0-95.4,0L190.7,592l-38.8-174.4h35v-90L14.8,327.7L14.8,327.7z"/>
</svg>
